<?xml version="1.0" encoding="iso-8859-1"?>
<!-- Generator: Adobe Illustrator 19.0.0, SVG Export Plug-In . SVG Version: 6.00 Build 0)  -->
<svg version="1.1" id="Capa_1" xmlns="http://www.w3.org/2000/svg" xmlns:xlink="http://www.w3.org/1999/xlink" x="0px" y="0px"
	 viewBox="0 0 512 512" style="enable-background:new 0 0 512 512;" xml:space="preserve">
<path style="fill:#10BB67;" d="M385.6,225.099L286,301h-60l-99.6-75.901C151.901,196.899,188.2,181,226,181h60
	C323.8,181,360.099,196.899,385.6,225.099z"/>
<path style="fill:#0CA656;" d="M385.6,225.099L286,301h-30V181h30C323.8,181,360.099,196.899,385.6,225.099z"/>
<path style="fill:#FEA832;" d="M482,226v210c0,8.399-6.599,15-15,15c-79.799,0-143.2,18.699-202.599,58.599H263.5
	c0,0.3-0.3,0.601-0.3,0.601c-2.401,1.199-4.799,1.8-7.2,1.8c-2.701,0-5.4-0.901-7.5-2.401h-0.901C188.2,469.699,124.799,451,45,451
	c-8.401,0-15-6.601-15-15V226c0-8.401,6.599-15,15-15c82.5,0,148.599,17.999,211,57.299C318.401,228.999,384.5,211,467,211
	C475.401,211,482,217.599,482,226z"/>
<path style="fill:#FE9923;" d="M482,226v210c0,8.399-6.599,15-15,15c-79.799,0-143.2,18.699-202.599,58.599H263.5
	c0,0.3-0.3,0.601-0.3,0.601c-2.401,1.199-4.799,1.8-7.2,1.8V268.299C318.401,228.999,384.5,211,467,211
	C475.401,211,482,217.599,482,226z"/>
<path style="fill:#32D736;" d="M256,0c-57.9,0-105,48.1-105,106s47.1,105,105,105s105-47.1,105-105S313.9,0,256,0z"/>
<path style="fill:#10BB67;" d="M30,391L30,391c-16.569,0-30-13.431-30-30v-60c0-16.569,13.431-30,30-30l0,0
	c16.569,0,30,13.431,30,30v60C60,377.569,46.569,391,30,391z"/>
<path style="fill:#0CA656;" d="M482,391L482,391c-16.569,0-30-13.431-30-30v-60c0-16.569,13.431-30,30-30l0,0
	c16.569,0,30,13.431,30,30v60C512,377.569,498.569,391,482,391z"/>
<path style="fill:#10BB67;" d="M361,106c0,57.9-47.1,105-105,105V0C313.9,0,361,48.1,361,106z"/>
<g>
</g>
<g>
</g>
<g>
</g>
<g>
</g>
<g>
</g>
<g>
</g>
<g>
</g>
<g>
</g>
<g>
</g>
<g>
</g>
<g>
</g>
<g>
</g>
<g>
</g>
<g>
</g>
<g>
</g>
</svg>
