<svg id="Capa_1" enable-background="new 0 0 512.002 512.002" height="512" viewBox="0 0 512.002 512.002" width="512" xmlns="http://www.w3.org/2000/svg"><g><path d="m113.501 67.5c-8.25 0-15 6.75-15 15v30c0 8.25 6.75 15 15 15 8.284 0 15-6.716 15-15v-30c0-8.284-6.716-15-15-15z" fill="#696969"/><path d="m233.501 67.5c-8.25 0-15 6.75-15 15v30c0 8.25 6.75 15 15 15 8.284 0 15-6.716 15-15v-30c0-8.284-6.716-15-15-15z" fill="#4f4f4f"/><path d="m173.501 52.5v46.355h34.695v-30c-8.25-9.98-20.725-16.355-34.695-16.355z" fill="#60312c"/><path d="m138.806 98.855v-30c8.25-9.98 20.725-16.355 34.695-16.355 6.09 0 11.32 10.88 13.67 26.5-.129-.061 0 19.855 0 19.855z" fill="#85453d"/><path d="m208.196 68.855c-1.07 4.55-4.225 8.535-8.865 10.465-4.64 1.92-9.68 1.33-13.65-1.13l-12.18 64.31c24.85 0 45-20.15 45-45 0-10.88-3.875-20.855-10.305-28.645z" fill="#85453d"/><path d="m187.171 79c-.51-.24-1.01-.51-1.49-.81-2.72 3.79-7.16 6.26-12.18 6.26-4.08 0-7.77-1.63-10.48-4.28-.62-.61-1.19-1.27-1.7-1.98-3.97 2.46-9.01 3.05-13.65 1.13-2.03-.84-3.77-2.08-5.19-3.59-1.81-1.93-3.075-4.315-3.675-6.875-6.43 7.79-10.305 17.765-10.305 28.645 0 24.85 20.15 45 45 45 8.28 0 15-20.15 15-45 0-6.6-.48-12.86-1.33-18.5z" fill="#a45e43"/><path d="m53.501 97.501c8.284 0 15 6.716 15 15v15c0 8.284-6.716 15-15 15s-15-6.716-15-15v-15c0-8.285 6.716-15 15-15z" fill="#999"/><path d="m398.501 7.5c-44.356 0-81.215 32.089-88.636 74.318l-31.364 15.682 31.364 15.682c7.421 42.229 44.28 74.318 88.636 74.318 49.706 0 90-40.294 90-90s-40.294-90-90-90z" fill="#fff"/><path d="m173.501 172.5-20 120h65l-15-120z" fill="#fff0d3"/><path d="m143.501 172.5-15 120h45v-120z" fill="#fff"/><path d="m203.501 262.5-30 45 30 45h30v-60z" fill="#ff4996"/><path d="m128.501 262.5-15 30v60h90v-90z" fill="#ff6b8a"/><path d="m233.501 192.5c0-11.046-8.961-20-20.006-20h-9.994v90c0 16.569 13.431 30 30 30z" fill="#ff8646"/><path d="m133.507 172.5c-11.046 0-20 8.954-20 20l-.006 100c16.569 0 30-13.431 30-30v-90z" fill="#ffa754"/><circle cx="398.501" cy="97.5" r="7.5"/><circle cx="368.501" cy="97.5" r="7.5"/><circle cx="428.501" cy="97.5" r="7.5"/><path d="m398.501 0c-46.154 0-85.63 32.056-95.286 76.758l-28.067 14.034c-2.541 1.271-4.146 3.867-4.146 6.708s1.604 5.438 4.146 6.708l28.068 14.034c9.655 44.702 49.131 76.758 95.285 76.758 53.762 0 97.5-43.738 97.5-97.5s-43.738-97.5-97.5-97.5zm0 180c-40.143 0-74.313-28.646-81.249-68.115-.411-2.341-1.907-4.348-4.032-5.41l-17.949-8.975 17.948-8.974c2.125-1.063 3.621-3.069 4.032-5.41 6.937-39.469 41.107-68.116 81.25-68.116 45.49 0 82.5 37.01 82.5 82.5s-37.01 82.5-82.5 82.5z"/><path d="m240.063 185.385c-3.145-11.725-13.859-20.385-26.562-20.385h-80c-12.563 0-23.178 8.472-26.452 20h-46.048v-36.289c8.729-3.096 15-11.433 15-21.21v-15c0-12.406-10.094-22.5-22.5-22.5s-22.5 10.094-22.5 22.5v15c0 9.777 6.271 18.114 15 21.21v36.289h-7.5c-12.406 0-22.5 10.094-22.5 22.5s10.094 22.5 22.5 22.5h15c4.143 0 7.5-3.357 7.5-7.5v-22.5h45v152.5c0 4.143 3.357 7.5 7.5 7.5h22.5v129.095l-24.872 8.29c-3.929 1.31-6.053 5.558-4.743 9.487 1.048 3.143 3.974 5.13 7.114 5.13.786 0 1.586-.125 2.373-.387l30-10c3.063-1.021 5.128-3.887 5.128-7.115v-134.5h45v134.5c0 3.229 2.065 6.095 5.128 7.115l30 10c.787.262 1.587.387 2.373.387 3.141 0 6.066-1.987 7.114-5.13 1.31-3.93-.814-8.178-4.743-9.487l-24.872-8.29v-129.095h22.5c4.143 0 7.5-3.357 7.5-7.5v-53.005c28.173-3.688 50-27.832 50-56.995 0-29.486-22.313-53.846-50.938-57.115zm-194.062 29.615h-7.5c-4.136 0-7.5-3.364-7.5-7.5s3.364-7.5 7.5-7.5h7.5zm0-102.499c0-4.136 3.364-7.5 7.5-7.5s7.5 3.364 7.5 7.5v15c0 4.136-3.364 7.5-7.5 7.5s-7.5-3.364-7.5-7.5zm180 79.999v91.21c-8.729-3.096-15-11.433-15-21.21v-82.5h2.5c6.893 0 12.5 5.607 12.5 12.5zm-30 62.5h-45v-75h45zm-62.5-75h2.5v82.5c0 9.777-6.271 18.114-15 21.21v-91.21c0-6.893 5.607-12.5 12.5-12.5zm-12.5 165v-45.755c14.672-2.99 26.255-14.573 29.245-29.245h46.509c2.99 14.672 14.573 26.255 29.245 29.245v45.755zm120-60.676v-83.648c19.868 3.554 35 20.949 35 41.824s-15.132 38.27-35 41.824z"/><path d="m233.501 60c-2.76 0-5.405.499-7.851 1.413-3.026-26.092-25.258-46.413-52.149-46.413s-49.123 20.321-52.149 46.413c-2.445-.914-5.091-1.413-7.851-1.413-12.406 0-22.5 10.094-22.5 22.5v30c0 12.406 10.094 22.5 22.5 22.5 6.708 0 12.737-2.955 16.863-7.627 9.489 13.66 25.282 22.627 43.137 22.627s33.648-8.967 43.137-22.627c4.126 4.672 10.154 7.627 16.863 7.627 12.406 0 22.5-10.094 22.5-22.5v-30c0-12.406-10.094-22.5-22.5-22.5zm-60-30c18.131 0 33.296 12.935 36.756 30.061-9.478-9.306-22.455-15.061-36.756-15.061s-27.278 5.755-36.756 15.061c3.46-17.126 18.625-30.061 36.756-30.061zm25.799 40.323c-.755.891-1.718 1.601-2.838 2.067-2.247.931-4.738.721-6.831-.576-3.354-2.075-7.742-1.201-10.044 2.003-1.429 1.992-3.647 3.134-6.086 3.134s-4.657-1.142-6.086-3.134c-2.3-3.204-6.688-4.082-10.044-2.003-2.093 1.297-4.584 1.507-6.82.581-1.125-.468-2.092-1.179-2.848-2.072 6.727-6.39 15.809-10.323 25.798-10.323s19.071 3.933 25.799 10.323zm-78.299 42.177c0 4.136-3.364 7.5-7.5 7.5s-7.5-3.364-7.5-7.5v-30c0-4.136 3.364-7.5 7.5-7.5s7.5 3.364 7.5 7.5zm52.5 22.5c-20.678 0-37.5-16.822-37.5-37.5 0-5.237 1.083-10.224 3.03-14.755 1.719 1.436 3.659 2.626 5.771 3.504 4.713 1.951 9.924 2.207 14.748.839 3.931 3.107 8.843 4.862 13.951 4.862s10.021-1.755 13.951-4.862c4.825 1.369 10.037 1.11 14.759-.844 2.108-.876 4.044-2.064 5.761-3.498 1.947 4.531 3.029 9.518 3.029 14.754 0 20.678-16.822 37.5-37.5 37.5zm67.5-22.5c0 4.136-3.364 7.5-7.5 7.5s-7.5-3.364-7.5-7.5v-30c0-4.136 3.364-7.5 7.5-7.5s7.5 3.364 7.5 7.5z"/></g></svg>