<?xml version="1.0"?>
<svg xmlns="http://www.w3.org/2000/svg" xmlns:xlink="http://www.w3.org/1999/xlink" width="512" height="512" viewBox="0 0 128 128"><defs><linearGradient id="a" x1="105.865" y1="105.888" x2="22.112" y2="22.135" gradientUnits="userSpaceOnUse"><stop offset="0" stop-color="#3ba9fd"/><stop offset="1" stop-color="#bae543"/></linearGradient></defs><path d="M123.25,64A59.254,59.254,0,0,1,14.767,96.974a1.75,1.75,0,1,1,2.906-1.95,55.464,55.464,0,1,0-7.48-16.375,1.75,1.75,0,1,1-3.377.917A59.257,59.257,0,1,1,123.25,64ZM14.42,89.52c-.635-1.231-1.231-2.5-1.771-3.775a1.75,1.75,0,1,0-3.222,1.367c.574,1.354,1.208,2.7,1.882,4.011a1.75,1.75,0,1,0,3.111-1.6Zm94.752-7.771a1.751,1.751,0,0,0,2.232-1.068A50.252,50.252,0,1,0,64,114.25a50.544,50.544,0,0,0,43.215-24.628,1.75,1.75,0,0,0-3.008-1.79A46.734,46.734,0,1,1,110.75,64,46.53,46.53,0,0,1,108.1,79.516,1.75,1.75,0,0,0,109.172,81.749ZM32.889,35.022a1.752,1.752,0,0,0-2.468.187,44.455,44.455,0,0,0-3.662,4.915A1.75,1.75,0,0,0,29.7,42.017a41.113,41.113,0,0,1,3.375-4.527A1.751,1.751,0,0,0,32.889,35.022Zm50.7,45.636c-2.771,1.887-6.155,1.954-10.068.2a1.75,1.75,0,0,0-2.221,2.49c3.636,6.121,8.167,9.552,12.759,9.661,2.548.071,6.285-.891,9.509-5.776C99.076,78.889,99.52,66.7,94.6,58.883a14.274,14.274,0,0,0-12.009-6.591h-.026c-5.182.009-9.941,2.877-13.056,7.869a14.621,14.621,0,0,1-6.282,5.8c3.587-5.7,2.467-12.036-.043-15.412a11.28,11.28,0,0,0-6.71-4.183,1.75,1.75,0,1,0-.776,3.413,7.731,7.731,0,0,1,4.677,2.859c1.822,2.45,3.483,9.274-3.013,14.731a1.75,1.75,0,0,0,.97,3.083c.342.029,8.475.654,14.146-8.433,2.5-4.006,6.084-6.216,10.094-6.222h.019a10.746,10.746,0,0,1,9.046,4.955c4.165,6.62,3.73,17.406-.989,24.555-1.293,1.958-3.449,4.268-6.506,4.2-2.285-.054-4.708-1.464-6.965-3.983a12,12,0,0,0,8.384-1.974c5.034-3.431,7.078-10.177,6.846-14.993-.217-4.512-2.975-8.16-6.863-9.078-3.093-.73-7.43.3-10.3,5.405-4.1,7.3-6.657,8.045-11.143,7.959a1.75,1.75,0,0,0-1.4,2.843c1.025,1.28,4.158,9.236,2.011,15.069-1.211,3.289-3.867,5.287-8.12,6.107a17.43,17.43,0,0,1-15.089-3.831,22.509,22.509,0,0,1-5.131-6.438c3.44,3.37,7.649,5.547,11.307,5.916,4.673.472,8.805-.59,11.34-2.912a9.141,9.141,0,0,0,2.87-7.093c-.1-7.2-3.908-10.586-12.674-11.142l-.8-4.112c3.075-.346,7.6-1.292,9.8-3.879a5.414,5.414,0,0,0,1.294-4.191,4.505,4.505,0,0,0-1.992-3.335c-2.551-1.728-7.322-1.588-15.351.483l-.7-3.955a35.776,35.776,0,0,1,6.634-2.321,1.75,1.75,0,1,0-.791-3.409,40.939,40.939,0,0,0-8.565,3.143,1.751,1.751,0,0,0-.957,1.877l1.259,7.152a1.75,1.75,0,0,0,2.19,1.384c9.661-2.676,13.116-2.269,14.315-1.456a1.011,1.011,0,0,1,.475.819,1.9,1.9,0,0,1-.48,1.541c-1.264,1.484-4.92,2.589-9.316,2.815A1.75,1.75,0,0,0,44.612,66l1.431,7.381A1.75,1.75,0,0,0,47.711,74.8c9.783.279,10.625,3.677,10.68,7.753a5.6,5.6,0,0,1-1.734,4.467c-1.773,1.625-5,2.374-8.625,2.009-4.731-.477-12.642-5.788-14.57-14.141a1.75,1.75,0,0,0-3.454.346A27.306,27.306,0,0,0,39.24,95.7a20.561,20.561,0,0,0,13.546,5.037,23.638,23.638,0,0,0,4.47-.438c6.828-1.317,9.61-5.259,10.743-8.335,2.008-5.455.45-11.98-1.111-15.74,4.853-.571,7.8-3.191,11.411-9.625,1.626-2.894,4.036-4.284,6.441-3.714s4.029,2.857,4.172,5.84C89.1,72.722,87.338,78.1,83.59,80.658ZM62.123,39.577c6.8,2.282,16.857,2.707,22.087-1a1.749,1.749,0,0,1,2.727,1.083l1.455,7.222a1.75,1.75,0,0,1-1.086,1.978,28.677,28.677,0,0,1-10.193,1.845c-7.373,0-14.5-2.8-17.146-8.761a1.75,1.75,0,0,1,2.156-2.369Zm4.092,4.63c4.49,3.291,12.156,3.837,18.444,1.873l-.674-3.346C79.052,45.05,72.248,45.277,66.215,44.207Zm6.669-4.955-4.5-4.5a1.749,1.749,0,0,1,0-2.475l4.5-4.5a1.75,1.75,0,0,1,2.474,0l4.5,4.5a1.749,1.749,0,0,1,0,2.475l-4.5,4.5a1.748,1.748,0,0,1-2.474,0ZM72.1,33.515l2.025,2.025,2.025-2.025L74.121,31.49Z" fill="url(#a)"/></svg>
