<svg id="_x33_0" enable-background="new 0 0 64 64" height="512" viewBox="0 0 64 64" width="512" xmlns="http://www.w3.org/2000/svg" xmlns:xlink="http://www.w3.org/1999/xlink"><linearGradient id="SVGID_1_" gradientUnits="userSpaceOnUse" x1="32" x2="32" y1="63" y2="1"><stop offset="0" stop-color="#9f2fff"/><stop offset="1" stop-color="#0bb1d3"/></linearGradient><path d="m7 43v-27.586l-4.293 4.293-1.414-1.414 6.707-6.707 6.707 6.707-1.414 1.414-4.293-4.293v27.586zm54 2h-2v2h2zm-4 2v2h2v-2zm0-4v-27.586l4.293 4.293 1.414-1.414-6.707-6.707-6.707 6.707 1.414 1.414 4.293-4.293v27.586zm-22-26c.552 0 1-.448 1-1s-.448-1-1-1-1 .448-1 1 .448 1 1 1zm-6 0c.552 0 1-.448 1-1s-.448-1-1-1-1 .448-1 1 .448 1 1 1zm6.789 2.658.105-.211-1.789-.895-.105.212c-.381.762-1.147 1.236-2 1.236s-1.619-.474-2-1.236l-.105-.211-1.789.895.105.211c.722 1.444 2.174 2.341 3.789 2.341s3.067-.897 3.789-2.342zm14.211 25.342v18h-6-1-22-1-6v-18h-2v-4.916c0-4.751 2.64-9.021 6.889-11.146 1.203-.601 2.485-1.001 3.813-1.19l4.491-.642.582-2.325c-1.715-1.073-2.991-2.773-3.511-4.78h-.264c-2.206 0-4-1.794-4-4 0-.947.344-1.806.896-2.492l-.716-2.67c-.121-.481-.18-.958-.18-1.437 0-2.454 1.55-4.667 3.855-5.505l6.578-2.392c.922-.335 1.888-.505 2.87-.505 2.629 0 5.14 1.255 6.716 3.358l.508.676c1.956.259 3.473 1.939 3.473 3.966 0 1.608-.565 3.586-.871 4.538.537.681.871 1.529.871 2.462 0 2.206-1.794 4-4 4h-.263c-.519 2.007-1.796 3.708-3.511 4.78l.582 2.325 4.492.642c1.326.189 2.608.59 3.812 1.19 4.248 2.126 6.888 6.396 6.888 11.147v4.916zm-13.646-15.939-2.741 2.741 2.619 1.572.631-4.24zm-6.301 19.675 1.947 2.597 1.947-2.597-1.805-11.736h-.284zm3.152-14.847-1.205-.723-1.205.723.74 1.111h.93zm8.795-17.889c0-1.103-.897-2-2-2v4c1.103 0 2-.897 2-2zm-20-6.598c0 .314.039.629.115.935l.515 1.92c.429-.158.887-.257 1.37-.257h.888c2.027-.42 3.356-1.203 4.639-1.963 1.693-1.001 3.443-2.037 6.473-2.037 2.206 0 4 1.794 4 4 .503 0 .979.103 1.422.273.265-.921.578-2.228.578-3.273 0-1.103-.897-2-2-2h-.5l-1.081-1.442c-1.201-1.602-3.114-2.558-5.116-2.558-.748 0-1.483.13-2.186.385l-6.578 2.392c-1.518.552-2.539 2.009-2.539 3.625zm2 8.598v-4c-1.103 0-2 .897-2 2s.897 2 2 2zm8 6c3.309 0 6-2.691 6-6v-6c0-1.103-.897-2-2-2-2.483 0-3.859.814-5.454 1.759-1.219.721-2.581 1.527-4.546 2.037v4.204c0 3.309 2.691 6 6 6zm-2.379 1.639-.513 2.055 2.892 2.892 2.893-2.893-.513-2.055c-.752.235-1.552.362-2.38.362s-1.628-.127-2.379-.361zm-2.484 3.495.632 4.24 2.619-1.572-2.741-2.741zm-7.137 31.866v-16h-4v16zm24-22v4h6v-2.916c0-3.988-2.216-7.574-5.783-9.357-1.009-.504-2.086-.841-3.199-.999l-2.175-.311-1.074 7.21-2.846-1.708-.875 1.312 2.005 13.032-4.053 5.404-4.053-5.403 2.005-13.032-.875-1.312-2.846 1.708-1.075-7.21-2.173.311c-1.114.158-2.191.495-3.2.999-3.567 1.782-5.783 5.368-5.783 9.356v2.916h6v-4h2v22h20v-22zm4 6h-4v16h4zm13 4h2v-2h-2zm-2 2h2v-2h-2zm-3 4h-2v2h2zm-4 2v2h2v-2zm4 2h2v-2h-2zm-2 2h2v-2h-2zm-49-16h-2v2h2zm2 2h-2v2h2zm-6 0v2h2v-2zm2 4h2v-2h-2zm7 4h-2v2h2zm0 4h2v-2h-2zm-4-2v2h2v-2zm2 4h2v-2h-2z" fill="url(#SVGID_1_)"/></svg>