<svg id="Capa_1" enable-background="new 0 0 512.001 512.001" height="512" viewBox="0 0 512.001 512.001" width="512" xmlns="http://www.w3.org/2000/svg"><g><g><path d="m466 250v-60c-13.23 0-35.302 0-60 0l30-60v-30c-14.614 0-105.482 0-120 0v30l30 60c-23.83 0-45.624 0-60 0v60h60v132c0 33.14-26.86 60-60 60v60h180v-60c-33.14 0-60-26.86-60-60v-132z" fill="#fce8d0"/><g fill="#8690a6"><path d="m226 280v-60c-5 0-175 0-180 0v60h60v102c0 33.14-26.86 60-60 60v60h180v-60c-33.14 0-60-26.86-60-60v-102z"/><path d="m196 160c0-41.42-60-90-60-90s-60 48.58-60 90 26.86 60 60 60 60-18.58 60-60z"/><circle cx="136" cy="40" r="30"/></g></g><g><path d="m226 290c5.523 0 10-4.478 10-10v-60c0-5.522-4.477-10-10-10h-37.859c11.693-12.235 17.859-29.414 17.859-50 0-32.606-31.15-67.417-49.915-85.43 11.897-6.94 19.915-19.832 19.915-34.57 0-22.056-17.944-40-40-40s-40 17.944-40 40c0 14.738 8.018 27.63 19.915 34.57-18.765 18.013-49.915 52.824-49.915 85.43 0 20.586 6.166 37.765 17.859 50h-37.859c-5.523 0-10 4.478-10 10v60c0 5.522 4.477 10 10 10h50v92c0 27.57-22.43 50-50 50-5.523 0-10 4.478-10 10v60c0 5.522 4.477 10 10 10h45c5.523 0 10-4.478 10-10s-4.477-10-10-10h-35v-40h160v40h-35c-5.523 0-10 4.478-10 10s4.477 10 10 10h45c5.523 0 10-4.478 10-10v-60c0-5.522-4.477-10-10-10-27.57 0-50-22.43-50-50v-92zm-90-270c11.028 0 20 8.972 20 20s-8.972 20-20 20-20-8.972-20-20 8.973-20 20-20zm-50 140c0-26.544 31.831-60.563 50.005-76.842 18.174 16.254 49.995 50.236 49.995 76.842 0 45.128-34.966 50-50 50s-50-4.872-50-50zm-30 70h160v40h-160zm121.074 202h-82.147c12.992-12.716 21.073-30.429 21.073-50v-92h40v92c0 19.571 8.082 37.284 21.074 50z"/><path d="m466 260c5.523 0 10-4.478 10-10v-60c0-5.522-4.477-10-10-10h-43.82l22.764-45.528c.694-1.388 1.056-2.919 1.056-4.472v-30c0-5.522-4.477-10-10-10h-50v-40h20c5.523 0 10-4.478 10-10s-4.477-10-10-10h-20v-20c0-5.522-4.477-10-10-10s-10 4.478-10 10v20h-20c-5.523 0-10 4.478-10 10s4.477 10 10 10h20v40h-50c-5.523 0-10 4.478-10 10v30c0 1.553.361 3.084 1.056 4.472l22.764 45.528h-43.82c-5.523 0-10 4.478-10 10v60c0 5.522 4.477 10 10 10h50v122c0 27.57-22.43 50-50 50-5.523 0-10 4.478-10 10v60c0 5.522 4.477 10 10 10h45c5.523 0 10-4.478 10-10s-4.477-10-10-10h-35v-40h160v40h-35c-5.523 0-10 4.478-10 10s4.477 10 10 10h45c5.523 0 10-4.478 10-10v-60c0-5.522-4.477-10-10-10-27.57 0-50-22.43-50-50v-122zm-140-132.36v-17.64h100v17.64l-26.18 52.36h-47.64zm-30 72.36h160v40h-160zm121.074 232h-82.146c12.991-12.716 21.072-30.429 21.072-50v-122h40v122c0 19.571 8.082 37.284 21.074 50z"/><circle cx="136" cy="502.001" r="10"/><circle cx="376" cy="502.001" r="10"/></g></g></svg>