<svg height="512" viewBox="0 0 64 64" width="512" xmlns="http://www.w3.org/2000/svg"><g id="Elearning-man-laptop-online-education"><path d="m18 41h36a5 5 0 0 1 5 5 5 5 0 0 1 -5 5h-36a0 0 0 0 1 0 0v-10a0 0 0 0 1 0 0z" fill="#ff9811"/><path d="m18 44h36a2 2 0 0 1 2 2 2 2 0 0 1 -2 2h-36a0 0 0 0 1 0 0v-4a0 0 0 0 1 0 0z" fill="#b39a7c"/><path d="m13 51h36a5 5 0 0 1 5 5 5 5 0 0 1 -5 5h-36a0 0 0 0 1 0 0v-10a0 0 0 0 1 0 0z" fill="#64c37d"/><path d="m13 54h36a2 2 0 0 1 2 2 2 2 0 0 1 -2 2h-36a0 0 0 0 1 0 0v-4a0 0 0 0 1 0 0z" fill="#b39a7c"/><path d="m28 26v8h14v-8a1 1 0 0 0 -1-1h-12a1 1 0 0 0 -1 1z" fill="#9bfbff"/><path d="m42 33v4h10a2.006 2.006 0 0 0 2-2v-4h-5v2z" fill="#f5e0cd"/><path d="m42 27v6h7v-2h5v-2a2.006 2.006 0 0 0 -2-2z" fill="#00ddc2"/><path d="m42 21h8a2.006 2.006 0 0 0 -2-2 1.956 1.956 0 0 0 -.68.13 2.954 2.954 0 0 0 -2.32-1.13 3 3 0 0 0 -3 3z" fill="#806749"/><path d="m47 21a3 3 0 0 1 3 3v3a0 0 0 0 1 0 0h-6a0 0 0 0 1 0 0v-3a3 3 0 0 1 3-3z" fill="#f5e0cd" transform="matrix(-1 0 0 -1 94 48)"/><path d="m28 34h16v3h-16z" fill="#e9e9ea"/><path d="m33 54h4l1.38-13h2.62v-4h-7z" fill="#004fac"/><path d="m41 37v17h4l1.38-13h5.62v-4z" fill="#005ece"/><path d="m18 23v2a3 3 0 0 1 -6 0v-2z" fill="#e9e9ea"/><path d="m22 14a7.01 7.01 0 0 1 -4 6.32v2.68h-6v-2.68a7 7 0 0 1 -4-6.58 7.1 7.1 0 0 1 6.88-6.74 7 7 0 0 1 7.12 7z" fill="#ffda44"/><rect fill="#ffda44" height="2" rx="1" width="2" x="34" y="28"/><path d="m11.832 15.555 1.511-2.266 1.21.606a1 1 0 0 0 .894 0l1.21-.606 1.511 2.266 1.664-1.11-2-3a1 1 0 0 0 -1.279-.34l-1.553.777-1.553-.777a1 1 0 0 0 -1.279.34l-2 3z" fill="#ff5023"/><path d="m14 2h2v2h-2z" fill="#ffda44"/><path d="m6.222 5.222h2v2h-2z" fill="#ffda44" transform="matrix(.707 -.707 .707 .707 -2.284 6.929)"/><path d="m3 13h2v2h-2z" fill="#ffda44"/><path d="m6.222 20.778h2v2h-2z" fill="#ffda44" transform="matrix(.707 -.707 .707 .707 -13.284 11.485)"/><path d="m21.778 20.778h2v2h-2z" fill="#ffda44" transform="matrix(.707 -.707 .707 .707 -8.728 22.485)"/><path d="m25 13h2v2h-2z" fill="#ffda44"/><path d="m21.778 5.222h2v2h-2z" fill="#ffda44" transform="matrix(.707 -.707 .707 .707 2.272 17.929)"/><g fill="#aafff5"><path d="m55 14h2v2h-2z"/><path d="m53 16h2v2h-2z"/><path d="m55 18h2v2h-2z"/><path d="m57 16h2v2h-2z"/><path d="m35 9h2v2h-2z"/><path d="m33 11h2v2h-2z"/><path d="m35 13h2v2h-2z"/><path d="m37 11h2v2h-2z"/><path d="m9 33h2v2h-2z"/><path d="m7 35h2v2h-2z"/><path d="m9 37h2v2h-2z"/><path d="m11 35h2v2h-2z"/></g><path d="m12 22h6v2h-6z" fill="#acabb1"/></g></svg>